<svg width="1600" height="900" viewBox="0 0 1600 900" fill="none" xmlns="http://www.w3.org/2000/svg">
  <rect width="1600" height="900" rx="40" fill="#F6F1E7"/>
  <rect x="80" y="120" width="1440" height="660" rx="34" fill="#FFFCF7" stroke="#D7C9AF" stroke-width="4"/>
  <rect x="620" y="360" width="360" height="180" rx="28" fill="#17324B"/>
  <text x="800" y="420" text-anchor="middle" fill="#FFFFFF" font-family="Space Grotesk, Noto Sans SC, sans-serif" font-size="42" font-weight="700">Digital Human</text>
  <text x="800" y="474" text-anchor="middle" fill="#C7D8E2" font-family="Space Grotesk, Noto Sans SC, sans-serif" font-size="24">角色 · 驱动 · 动作 · 系统</text>
  <line x1="300" y1="450" x2="620" y2="450" stroke="#17324B" stroke-width="8" stroke-linecap="round"/>
  <line x1="980" y1="450" x2="1300" y2="450" stroke="#17324B" stroke-width="8" stroke-linecap="round"/>
  <line x1="430" y1="450" x2="350" y2="300" stroke="#CB6A36" stroke-width="6" stroke-linecap="round"/>
  <line x1="470" y1="450" x2="390" y2="600" stroke="#CB6A36" stroke-width="6" stroke-linecap="round"/>
  <line x1="1130" y1="450" x2="1210" y2="300" stroke="#2F7F8C" stroke-width="6" stroke-linecap="round"/>
  <line x1="1090" y1="450" x2="1170" y2="600" stroke="#2F7F8C" stroke-width="6" stroke-linecap="round"/>
  <line x1="800" y1="360" x2="800" y2="220" stroke="#D7C9AF" stroke-width="6" stroke-dasharray="14 14"/>
  <line x1="800" y1="540" x2="800" y2="680" stroke="#D7C9AF" stroke-width="6" stroke-dasharray="14 14"/>
  <rect x="140" y="190" width="300" height="118" rx="24" fill="#FFF2EA" stroke="#E4B191" stroke-width="3"/>
  <text x="170" y="238" fill="#A24C23" font-family="Space Grotesk, Noto Sans SC, sans-serif" font-size="26" font-weight="700">实时对话与口型</text>
  <text x="170" y="278" fill="#7C4A33" font-family="Noto Sans SC, sans-serif" font-size="20">2D/3D 实时对话</text>
  <text x="170" y="308" fill="#7C4A33" font-family="Noto Sans SC, sans-serif" font-size="20">中文口型同步优化</text>
  <rect x="180" y="575" width="300" height="118" rx="24" fill="#FFF2EA" stroke="#E4B191" stroke-width="3"/>
  <text x="210" y="623" fill="#A24C23" font-family="Space Grotesk, Noto Sans SC, sans-serif" font-size="26" font-weight="700">角色生成与接入</text>
  <text x="210" y="663" fill="#7C4A33" font-family="Noto Sans SC, sans-serif" font-size="20">图片到 3D 角色</text>
  <text x="210" y="693" fill="#7C4A33" font-family="Noto Sans SC, sans-serif" font-size="20">FaceBuilder → MetaHuman</text>
  <rect x="1160" y="190" width="300" height="118" rx="24" fill="#EAF7F8" stroke="#89BDC4" stroke-width="3"/>
  <text x="1190" y="238" fill="#145B66" font-family="Space Grotesk, Noto Sans SC, sans-serif" font-size="26" font-weight="700">动作生成与修正</text>
  <text x="1190" y="278" fill="#315F66" font-family="Noto Sans SC, sans-serif" font-size="20">Text2Motion</text>
  <text x="1190" y="308" fill="#315F66" font-family="Noto Sans SC, sans-serif" font-size="20">去脚滑 / 数据制作</text>
  <rect x="1120" y="575" width="300" height="118" rx="24" fill="#EAF7F8" stroke="#89BDC4" stroke-width="3"/>
  <text x="1150" y="623" fill="#145B66" font-family="Space Grotesk, Noto Sans SC, sans-serif" font-size="26" font-weight="700">视频替换与合成</text>
  <text x="1150" y="663" fill="#315F66" font-family="Noto Sans SC, sans-serif" font-size="20">人物捕捉 / 角色驱动</text>
  <text x="1150" y="693" fill="#315F66" font-family="Noto Sans SC, sans-serif" font-size="20">背景恢复 / 最终合成</text>
  <rect x="680" y="88" width="240" height="86" rx="20" fill="#F2E7D3" stroke="#D7C9AF" stroke-width="3"/>
  <text x="800" y="142" text-anchor="middle" fill="#17324B" font-family="Space Grotesk, Noto Sans SC, sans-serif" font-size="24" font-weight="700">Project Overview</text>
  <rect x="682" y="710" width="236" height="86" rx="20" fill="#F2E7D3" stroke="#D7C9AF" stroke-width="3"/>
  <text x="800" y="760" text-anchor="middle" fill="#17324B" font-family="Space Grotesk, Noto Sans SC, sans-serif" font-size="24" font-weight="700">Demo / Paper / Patent</text>
  <text x="800" y="790" text-anchor="middle" fill="#55657A" font-family="Noto Sans SC, sans-serif" font-size="18">研究原型和工程验证并行</text>
</svg>
